<svg width="639" height="604" viewBox="0 0 639 604" fill="none" xmlns="http://www.w3.org/2000/svg">
<path d="M606.735 557.511V418.351L11.705 418.351V557.511L606.735 557.511Z" fill="white"/>
<path d="M301.514 603.028C468.036 603.028 603.028 468.036 603.028 301.514C603.028 134.992 468.036 0 301.514 0C134.992 0 0 134.992 0 301.514C0 468.036 134.992 603.028 301.514 603.028Z" fill="white"/>
<path d="M301.514 587.033C459.202 587.033 587.033 459.202 587.033 301.514C587.033 143.826 459.202 15.995 301.514 15.995C143.826 15.995 15.9951 143.826 15.9951 301.514C15.9951 459.202 143.826 587.033 301.514 587.033Z" fill="#2D3D4A"/>
<path d="M571.034 301.514C571.034 329.186 566.859 355.866 559.117 380.995C558.333 383.57 557.502 386.129 556.638 388.673C556.574 388.849 556.51 389.025 556.446 389.185C553.599 397.503 550.352 405.628 546.721 413.546C543.138 421.368 539.187 428.998 534.901 436.404C508.093 482.695 467.912 520.268 419.622 543.845C383.952 561.264 343.883 571.037 301.512 571.037C259.14 571.037 219.072 561.264 183.402 543.845C135.111 520.268 94.9308 482.694 68.1228 436.404C61.0368 424.183 54.8948 411.355 49.7758 398.015C49.6798 397.759 49.5838 397.503 49.4718 397.247C48.4968 394.624 47.5368 392 46.6248 389.345C37.1398 361.817 31.9888 332.273 31.9888 301.514C31.9888 152.66 152.659 31.991 301.512 31.991C450.364 31.991 571.034 152.661 571.034 301.514Z" fill="#66AED6"/>
<path d="M419.749 438.003H68.121C61.035 425.782 54.893 412.954 49.774 399.614C49.678 399.358 49.5821 399.102 49.4701 398.846C48.4951 396.223 47.535 393.6 46.623 390.944L89.507 340.223H116.715L168.125 277.729L187.543 305.801L259.475 206.341L321.969 296.667L404.825 416.425L419.749 438.003Z" fill="#2D3D4A"/>
<path d="M183.718 309.788L180.804 314.159L167.691 298.132L123.982 343.298L167.691 285.019L183.718 309.788Z" fill="#FDFDFD"/>
<path d="M257.178 245.207L258.025 244.223L373.127 392.836L258.025 220.911L246.067 237.884L167.691 349.126L249.282 254.376L260.939 314.159L257.178 245.207Z" fill="#FDFDFD"/>
<path d="M112.333 347.677L94.8502 352.044L49.7752 399.615C49.6792 399.359 49.5832 399.103 49.4712 398.847L91.9232 347.678H112.333V347.677Z" fill="#FDFDFD"/>
<path d="M546.721 415.146C543.138 422.968 539.187 430.598 534.901 438.003H169.148L288.618 296.667H327.967L402.266 206.341L477.797 315.526L481.108 320.309L486.931 328.723L496.464 342.495L499.359 346.686L546.721 415.146Z" fill="#2D3D4A"/>
<path d="M406.638 249.168L499.885 360.782L403.724 220.911L333.788 303.96L397.936 250.504L406.638 303.96V249.168Z" fill="#FDFDFD"/>
<path d="M322.132 303.96H291.536L243.455 360.782L295.907 309.788L322.132 303.96Z" fill="#FDFDFD"/>
<path d="M559.117 382.595C558.333 385.17 557.502 387.73 556.638 390.273C556.574 390.449 556.51 390.625 556.446 390.785C553.599 399.103 550.352 407.228 546.721 415.146C543.138 422.968 539.187 430.598 534.901 438.003H389.214L404.825 416.425L470.502 325.603L473.173 321.924L477.796 315.526L495.647 290.845L559.117 382.595Z" fill="#2D3D4A"/>
<path d="M556.638 390.273C556.574 390.449 556.51 390.625 556.446 390.785L500.67 322.692L499.359 346.685L498.687 359.034L498.671 359.322L498.415 363.961L497.903 358.411L497.855 357.835V357.819L496.464 342.495L494.433 320.133L486.931 328.723L481.844 334.545L479.861 336.816L419.75 405.612L474.15 329.985L476.486 326.738L481.108 320.308L495.648 300.106L556.638 390.273Z" fill="#FDFDFD"/>
<path d="M583.034 436.676H19.9941V543.845H583.034V436.676Z" fill="#2D3D4A"/>
<path d="M84.229 282.253L93.245 270.135L81.619 279.776L69.501 270.76L79.142 282.387L70.126 294.504L81.752 284.864L93.87 293.879L84.229 282.253Z" fill="#2D3D4A"/>
<path d="M375.346 103.104L384.362 90.986L372.736 100.627L360.618 91.611L370.259 103.238L361.243 115.355L372.869 105.714L384.987 114.73L375.346 103.104Z" fill="#2D3D4A"/>
<path d="M489.077 203.25L482.443 189.682L485.679 204.435L472.11 211.068L486.863 207.833L493.497 221.401L490.261 206.649L503.829 200.015L489.077 203.25Z" fill="#2D3D4A"/>
<path d="M168.763 121.28L172.136 106.558L165.376 120.064L150.654 116.69L164.16 123.451L160.786 138.173L167.547 124.667L182.269 128.04L168.763 121.28Z" fill="#2D3D4A"/>
<path d="M284.414 163.302L278.255 149.511L280.977 164.367L267.186 170.526L282.042 167.804L288.201 181.595L285.479 166.739L299.27 160.58L284.414 163.302Z" fill="#2D3D4A"/>
<path d="M419.621 543.845C383.951 561.264 343.882 571.037 301.511 571.037C259.139 571.037 219.071 561.264 183.401 543.845H419.621Z" fill="white"/>
<path d="M173.659 259.127C199.278 259.127 220.046 238.359 220.046 212.74C220.046 187.121 199.278 166.353 173.659 166.353C148.04 166.353 127.272 187.121 127.272 212.74C127.272 238.359 148.04 259.127 173.659 259.127Z" fill="white"/>
<path d="M39.28 534C38.2133 534 37.68 533.467 37.68 532.4V450.288C37.68 449.221 38.2133 448.688 39.28 448.688H57.392C58.4587 448.688 58.992 449.221 58.992 450.288V516.912H75.12C76.1867 516.912 76.72 517.445 76.72 518.512V532.4C76.72 533.467 76.1867 534 75.12 534H39.28ZM103.378 534C102.397 534 101.543 533.637 100.818 532.912L88.018 520.112C87.2927 519.429 86.93 518.576 86.93 517.552V465.072C86.93 464.091 87.2927 463.237 88.018 462.512L100.818 449.712C101.543 449.029 102.397 448.688 103.378 448.688H128.53C129.554 448.688 130.407 449.029 131.09 449.712L143.89 462.512C144.615 463.237 144.978 464.091 144.978 465.072V517.552C144.978 518.576 144.615 519.429 143.89 520.112L131.09 532.912C130.407 533.637 129.554 534 128.53 534H103.378ZM110.93 516.912H120.978C122.77 516.912 123.666 515.717 123.666 513.328V469.36C123.666 466.928 122.77 465.712 120.978 465.712H110.93C109.181 465.712 108.306 466.928 108.306 469.36V513.328C108.306 515.717 109.181 516.912 110.93 516.912ZM161.905 534C160.838 534 160.305 533.467 160.305 532.4V450.288C160.305 449.221 160.838 448.688 161.905 448.688H180.017C181.084 448.688 181.617 449.221 181.617 450.288V484.208H189.553L193.777 468.272L197.617 449.52C197.702 449.264 197.894 449.072 198.193 448.944C198.534 448.773 199.025 448.688 199.665 448.688H218.097C219.164 448.688 219.697 449.221 219.697 450.288V458.288C219.697 458.757 219.633 459.227 219.505 459.696C219.377 460.123 219.27 460.507 219.185 460.848L211.377 479.6L205.937 489.84L211.505 499.952L220.913 521.328C221.084 521.627 221.212 521.947 221.297 522.288C221.382 522.629 221.425 523.12 221.425 523.76V532.4C221.425 533.467 220.892 534 219.825 534H200.753C200.454 534 200.07 533.957 199.601 533.872C199.174 533.744 198.918 533.467 198.833 533.04L194.097 512.752L190.577 501.168H181.617V532.4C181.617 533.467 181.084 534 180.017 534H161.905ZM235.332 534C234.265 534 233.732 533.467 233.732 532.4V473.072C233.732 472.517 233.945 471.877 234.372 471.152L249.54 449.648C250.009 449.008 250.692 448.688 251.588 448.688H272.772C273.711 448.688 274.393 449.008 274.82 449.648L290.052 471.152C290.479 471.749 290.692 472.389 290.692 473.072V532.4C290.692 533.467 290.159 534 289.092 534H270.98C269.913 534 269.38 533.467 269.38 532.4V505.2H255.108V532.4C255.108 533.467 254.575 534 253.508 534H235.332ZM262.212 491.44C266.137 491.44 268.783 490.587 270.148 488.88C271.556 487.131 272.26 483.824 272.26 478.96C272.26 474.096 271.556 470.811 270.148 469.104C268.783 467.355 266.137 466.48 262.212 466.48C258.329 466.48 255.684 467.355 254.276 469.104C252.911 470.811 252.228 474.096 252.228 478.96C252.228 483.824 252.911 487.131 254.276 488.88C255.684 490.587 258.329 491.44 262.212 491.44ZM307.28 534C306.213 534 305.68 533.467 305.68 532.4V450.288C305.68 449.221 306.213 448.688 307.28 448.688H342.672C343.696 448.688 344.549 449.029 345.232 449.712L358.032 462.512C358.757 463.237 359.12 464.091 359.12 465.072V487.152C359.12 488.176 358.757 489.029 358.032 489.712L345.232 502.512C344.549 503.237 343.696 503.6 342.672 503.6H326.992V532.4C326.992 533.467 326.459 534 325.392 534H307.28ZM331.792 486.192C335.333 486.192 337.744 485.488 339.024 484.08C340.347 482.672 341.008 480.005 341.008 476.08C341.008 472.155 340.347 469.488 339.024 468.08C337.744 466.672 335.333 465.968 331.792 465.968C328.293 465.968 325.883 466.672 324.56 468.08C323.28 469.488 322.64 472.155 322.64 476.08C322.64 480.005 323.28 482.672 324.56 484.08C325.883 485.488 328.293 486.192 331.792 486.192ZM370.582 534C369.515 534 368.982 533.467 368.982 532.4V473.072C368.982 472.517 369.195 471.877 369.622 471.152L384.79 449.648C385.259 449.008 385.942 448.688 386.838 448.688H408.022C408.961 448.688 409.643 449.008 410.07 449.648L425.302 471.152C425.729 471.749 425.942 472.389 425.942 473.072V532.4C425.942 533.467 425.409 534 424.342 534H406.23C405.163 534 404.63 533.467 404.63 532.4V505.2H390.358V532.4C390.358 533.467 389.825 534 388.758 534H370.582ZM397.462 491.44C401.387 491.44 404.033 490.587 405.398 488.88C406.806 487.131 407.51 483.824 407.51 478.96C407.51 474.096 406.806 470.811 405.398 469.104C404.033 467.355 401.387 466.48 397.462 466.48C393.579 466.48 390.934 467.355 389.526 469.104C388.161 470.811 387.478 474.096 387.478 478.96C387.478 483.824 388.161 487.131 389.526 488.88C390.934 490.587 393.579 491.44 397.462 491.44ZM455.33 534C454.263 534 453.73 533.467 453.73 532.4V465.712H442.53C441.463 465.712 440.93 465.179 440.93 464.112V450.288C440.93 449.221 441.463 448.688 442.53 448.688H486.242C487.309 448.688 487.842 449.221 487.842 450.288V464.112C487.842 465.179 487.309 465.712 486.242 465.712H475.042V532.4C475.042 533.467 474.509 534 473.442 534H455.33ZM504.78 534C503.713 534 503.18 533.467 503.18 532.4V450.288C503.18 449.221 503.713 448.688 504.78 448.688H522.892C523.959 448.688 524.492 449.221 524.492 450.288V480.688H540.3V450.288C540.3 449.221 540.833 448.688 541.9 448.688H560.012C561.079 448.688 561.612 449.221 561.612 450.288V532.4C561.612 533.467 561.079 534 560.012 534H541.9C540.833 534 540.3 533.467 540.3 532.4V497.712H524.492V532.4C524.492 533.467 523.959 534 522.892 534H504.78Z" fill="white"/>
</svg>
